<!-- public/assets/icons/apps-sprite.svg -->
<svg xmlns="http://www.w3.org/2000/svg" style="display:none">

  <!-- ====== HOTELFLOW ====== -->
  <symbol id="ico-front-desk" viewBox="0 0 64 64">
    <rect width="64" height="64" rx="14" fill="#F8FAFC"/>
    <path d="M12 42h40v6H12z" fill="#0F172A"/>
    <path d="M22 36h20v6H22z" fill="#38BDF8"/>
    <circle cx="20" cy="26" r="6" fill="#10B981"/>
    <rect x="34" y="22" width="18" height="10" rx="2" fill="#0F172A"/>
  </symbol>

  <symbol id="ico-reservations" viewBox="0 0 64 64">
    <rect width="64" height="64" rx="14" fill="#EEF2FF"/>
    <rect x="14" y="20" width="36" height="28" rx="6" fill="#4F46E5"/>
    <path d="M22 28h20M22 34h20M22 40h12" stroke="#E0E7FF" stroke-width="3" stroke-linecap="round"/>
    <circle cx="24" cy="16" r="4" fill="#4F46E5"/>
    <circle cx="40" cy="16" r="4" fill="#4F46E5"/>
  </symbol>

  <symbol id="ico-check-in" viewBox="0 0 64 64">
    <rect width="64" height="64" rx="14" fill="#ECFEFF"/>
    <path d="M18 46h28a4 4 0 004-4V18H22a4 4 0 00-4 4v24z" fill="#0891B2"/>
    <path d="M30 32h18" stroke="#E0F2FE" stroke-width="4" stroke-linecap="round"/>
    <path d="M28 28l-8 4 8 4" fill="none" stroke="#E0F2FE" stroke-width="4" stroke-linecap="round" stroke-linejoin="round"/>
  </symbol>

  <symbol id="ico-check-out" viewBox="0 0 64 64">
    <rect width="64" height="64" rx="14" fill="#FFF7ED"/>
    <path d="M46 46H18a4 4 0 01-4-4V18h28a4 4 0 014 4v24z" fill="#EA580C"/>
    <path d="M16 32h18" stroke="#FFEDD5" stroke-width="4" stroke-linecap="round"/>
    <path d="M36 28l8 4-8 4" fill="none" stroke="#FFEDD5" stroke-width="4" stroke-linecap="round" stroke-linejoin="round"/>
  </symbol>

  <symbol id="ico-guests" viewBox="0 0 64 64">
    <rect width="64" height="64" rx="14" fill="#EDE9FE"/>
    <circle cx="24" cy="28" r="6" fill="#4C1D95"/>
    <circle cx="40" cy="28" r="6" fill="#7C3AED"/>
    <path d="M14 46c2-6 8-10 10-10m16 0c2 0 8 4 10 10" stroke="#7C3AED" stroke-width="4" stroke-linecap="round"/>
  </symbol>

  <symbol id="ico-rooms" viewBox="0 0 64 64">
    <rect width="64" height="64" rx="14" fill="#EEF2FF"/>
    <rect x="16" y="24" width="32" height="20" rx="3" fill="#6366F1"/>
    <rect x="16" y="20" width="32" height="6" rx="2" fill="#A5B4FC"/>
    <rect x="22" y="28" width="8" height="6" rx="1" fill="#E0E7FF"/>
    <rect x="34" y="28" width="8" height="6" rx="1" fill="#E0E7FF"/>
  </symbol>

  <symbol id="ico-room-types" viewBox="0 0 64 64">
    <rect width="64" height="64" rx="14" fill="#F1F5F9"/>
    <rect x="18" y="18" width="28" height="10" rx="2" fill="#0EA5E9"/>
    <rect x="18" y="30" width="28" height="10" rx="2" fill="#10B981"/>
    <rect x="18" y="42" width="28" height="10" rx="2" fill="#F59E0B"/>
  </symbol>

  <symbol id="ico-rates" viewBox="0 0 64 64">
    <rect width="64" height="64" rx="14" fill="#ECFCCB"/>
    <path d="M18 40l10-10 8 6 10-12" stroke="#65A30D" stroke-width="4" stroke-linecap="round" stroke-linejoin="round"/>
    <circle cx="18" cy="40" r="4" fill="#65A30D"/>
    <circle cx="28" cy="30" r="4" fill="#65A30D"/>
    <circle cx="36" cy="36" r="4" fill="#65A30D"/>
    <circle cx="46" cy="24" r="4" fill="#65A30D"/>
  </symbol>

  <symbol id="ico-housekeeping" viewBox="0 0 64 64">
    <rect width="64" height="64" rx="14" fill="#FEF3C7"/>
    <path d="M22 42l20-20" stroke="#D97706" stroke-width="6" stroke-linecap="round"/>
    <path d="M20 44l-4 6" stroke="#D97706" stroke-width="4" stroke-linecap="round"/>
  </symbol>

  <symbol id="ico-maintenance" viewBox="0 0 64 64">
    <rect width="64" height="64" rx="14" fill="#FEE2E2"/>
    <path d="M24 40l16-16M40 40L24 24" stroke="#991B1B" stroke-width="6" stroke-linecap="round"/>
    <circle cx="24" cy="24" r="4" fill="#FCA5A5"/>
    <circle cx="40" cy="40" r="4" fill="#FCA5A5"/>
  </symbol>

  <symbol id="ico-folio-billing" viewBox="0 0 64 64">
    <rect width="64" height="64" rx="14" fill="#DCFCE7"/>
    <rect x="18" y="16" width="28" height="32" rx="4" fill="#059669"/>
    <path d="M24 24h16M24 30h16M24 36h10" stroke="#D1FAE5" stroke-width="3" stroke-linecap="round"/>
  </symbol>

  <symbol id="ico-payments" viewBox="0 0 64 64">
    <rect width="64" height="64" rx="14" fill="#DCFCE7"/>
    <rect x="14" y="24" width="36" height="22" rx="6" fill="#10B981"/>
    <circle cx="26" cy="35" r="4" fill="#064E3B"/>
    <rect x="32" y="33" width="14" height="4" rx="2" fill="#BBF7D0"/>
  </symbol>

  <symbol id="ico-night-audit" viewBox="0 0 64 64">
    <rect width="64" height="64" rx="14" fill="#E0E7FF"/>
    <path d="M40 18a14 14 0 1020 20 14 14 0 01-20-20z" fill="#1E3A8A" opacity=".95"/>
  </symbol>

  <symbol id="ico-reports" viewBox="0 0 64 64">
    <rect width="64" height="64" rx="14" fill="#FEF3C7"/>
    <path d="M20 42V30M32 42V22M44 42V36" stroke="#F59E0B" stroke-width="5" stroke-linecap="round"/>
  </symbol>

  <symbol id="ico-restaurant-pos" viewBox="0 0 64 64">
    <rect width="64" height="64" rx="14" fill="#FFFBEB"/>
    <path d="M24 18v28M20 30h8" stroke="#B45309" stroke-width="5" stroke-linecap="round"/>
    <path d="M44 18v28m0-16h0" stroke="#B45309" stroke-width="5" stroke-linecap="round"/>
  </symbol>

  <symbol id="ico-settings" viewBox="0 0 64 64">
    <rect width="64" height="64" rx="14" fill="#E2E8F0"/>
    <circle cx="32" cy="32" r="8" fill="#0F172A"/>
    <path d="M32 14v8M32 42v8M14 32h8M42 32h8M22 22l6 6M36 36l6 6M42 22l-6 6M28 36l-6 6"
          stroke="#0F172A" stroke-width="3" stroke-linecap="round"/>
  </symbol>

  <!-- ====== POS ====== -->
  <symbol id="ico-register" viewBox="0 0 64 64">
    <rect width="64" height="64" rx="14" fill="#F8FAFC"/>
    <rect x="16" y="24" width="32" height="18" rx="3" fill="#0F172A"/>
    <rect x="20" y="18" width="12" height="6" rx="2" fill="#CBD5E1"/>
    <rect x="20" y="44" width="24" height="6" rx="2" fill="#E2E8F0"/>
  </symbol>

  <symbol id="ico-sales" viewBox="0 0 64 64">
    <rect width="64" height="64" rx="14" fill="#E0F2FE"/>
    <path d="M18 40l10-10 8 6 10-12" stroke="#0284C7" stroke-width="4" stroke-linecap="round" stroke-linejoin="round"/>
  </symbol>

  <symbol id="ico-purchases" viewBox="0 0 64 64">
    <rect width="64" height="64" rx="14" fill="#FFF7ED"/>
    <path d="M18 24h28l-2 18a4 4 0 01-4 3H24a4 4 0 01-4-3l-2-18z" fill="#0F172A"/>
    <path d="M26 18a6 6 0 0012 0" stroke="#0F172A" stroke-width="4" stroke-linecap="round"/>
  </symbol>

  <symbol id="ico-products" viewBox="0 0 64 64">
    <rect width="64" height="64" rx="14" fill="#F5F3FF"/>
    <path d="M20 42h24l-2-14H22l-2 14z" fill="#3730A3"/>
    <path d="M22 28l10-8 10 8" stroke="#A78BFA" stroke-width="4" stroke-linecap="round" stroke-linejoin="round"/>
  </symbol>

  <symbol id="ico-categories" viewBox="0 0 64 64">
    <rect width="64" height="64" rx="14" fill="#FDECF2"/>
    <path d="M20 22h24v8H20zM20 34h16v8H20z" fill="#BE185D"/>
    <circle cx="44" cy="38" r="6" fill="#F43F5E"/>
  </symbol>

  <symbol id="ico-inventory" viewBox="0 0 64 64">
    <rect width="64" height="64" rx="14" fill="#E2E8F0"/>
    <rect x="18" y="26" width="28" height="18" rx="2" fill="#0F172A"/>
    <path d="M18 22h28" stroke="#94A3B8" stroke-width="4" stroke-linecap="round"/>
  </symbol>

  <symbol id="ico-movements" viewBox="0 0 64 64">
    <rect width="64" height="64" rx="14" fill="#ECFEFF"/>
    <path d="M20 36h24M24 32l-6 4 6 4M44 28l6-4-6-4" stroke="#0EA5E9" stroke-width="4" stroke-linecap="round" stroke-linejoin="round"/>
  </symbol>

  <symbol id="ico-customers" viewBox="0 0 64 64">
    <rect width="64" height="64" rx="14" fill="#EDE9FE"/>
    <circle cx="26" cy="28" r="6" fill="#4C1D95"/>
    <circle cx="38" cy="28" r="6" fill="#7C3AED"/>
    <path d="M14 46c2-6 8-10 12-10m12 0c4 0 10 4 12 10" stroke="#7C3AED" stroke-width="4" stroke-linecap="round"/>
  </symbol>

  <symbol id="ico-suppliers" viewBox="0 0 64 64">
    <rect width="64" height="64" rx="14" fill="#EFF6FF"/>
    <path d="M18 38h28l4 6H14l4-6z" fill="#0F172A"/>
    <rect x="20" y="22" width="24" height="14" rx="3" fill="#2563EB"/>
  </symbol>

  <symbol id="ico-pos-payments" viewBox="0 0 64 64">
    <rect width="64" height="64" rx="14" fill="#DCFCE7"/>
    <rect x="14" y="24" width="36" height="22" rx="6" fill="#10B981"/>
    <circle cx="26" cy="35" r="4" fill="#064E3B"/>
    <rect x="32" y="33" width="14" height="4" rx="2" fill="#BBF7D0"/>
  </symbol>

  <symbol id="ico-accounting" viewBox="0 0 64 64">
    <rect width="64" height="64" rx="14" fill="#F8FAFC"/>
    <path d="M18 44h28M22 20h8v24h-8zM34 26h8v18h-8z" fill="#0F172A"/>
  </symbol>

  <symbol id="ico-gl-journals" viewBox="0 0 64 64">
    <rect width="64" height="64" rx="14" fill="#EDE9FE"/>
    <rect x="20" y="16" width="24" height="32" rx="4" fill="#7C3AED"/>
    <path d="M24 24h16M24 30h16M24 36h12" stroke="#EDE9FE" stroke-width="3" stroke-linecap="round"/>
  </symbol>

  <symbol id="ico-banking" viewBox="0 0 64 64">
    <rect width="64" height="64" rx="14" fill="#E2E8F0"/>
    <path d="M12 28l20-10 20 10v4H12z" fill="#0F172A"/>
    <path d="M16 34h32v12H16z" fill="#94A3B8"/>
  </symbol>

  <symbol id="ico-reconcile" viewBox="0 0 64 64">
    <rect width="64" height="64" rx="14" fill="#ECFEFF"/>
    <path d="M20 32h24" stroke="#06B6D4" stroke-width="5" stroke-linecap="round"/>
    <path d="M30 26v12" stroke="#06B6D4" stroke-width="5" stroke-linecap="round"/>
  </symbol>

  <symbol id="ico-cash-book" viewBox="0 0 64 64">
    <rect width="64" height="64" rx="14" fill="#F8FAFC"/>
    <rect x="20" y="16" width="24" height="32" rx="4" fill="#0F172A"/>
    <rect x="20" y="16" width="6" height="32" rx="4" fill="#94A3B8"/>
  </symbol>

  <!-- ====== DMS / WAREHOUSE ====== -->
  <symbol id="ico-dashboard" viewBox="0 0 64 64">
    <rect width="64" height="64" rx="14" fill="#E2E8F0"/>
    <circle cx="24" cy="40" r="8" fill="#0F172A"/>
    <path d="M28 36l10-10" stroke="#0F172A" stroke-width="4" stroke-linecap="round"/>
  </symbol>

  <symbol id="ico-orders" viewBox="0 0 64 64">
    <rect width="64" height="64" rx="14" fill="#FEF3C7"/>
    <rect x="18" y="18" width="28" height="28" rx="4" fill="#F59E0B"/>
    <path d="M24 26h16M24 32h12" stroke="#FEF3C7" stroke-width="3" stroke-linecap="round"/>
  </symbol>

  <symbol id="ico-sales-invoices" viewBox="0 0 64 64">
    <rect width="64" height="64" rx="14" fill="#EDE9FE"/>
    <rect x="20" y="14" width="24" height="36" rx="4" fill="#7C3AED"/>
    <circle cx="24" cy="22" r="3" fill="#EDE9FE"/>
    <path d="M24 28h16M24 34h16M24 40h12" stroke="#EDE9FE" stroke-width="3" stroke-linecap="round"/>
  </symbol>

  <symbol id="ico-returns" viewBox="0 0 64 64">
    <rect width="64" height="64" rx="14" fill="#ECFEFF"/>
    <path d="M24 28h16a8 8 0 010 16H24" stroke="#06B6D4" stroke-width="5" stroke-linecap="round"/>
    <path d="M24 28l-6 6 6 6" fill="none" stroke="#06B6D4" stroke-width="5" stroke-linecap="round" stroke-linejoin="round"/>
  </symbol>

  <symbol id="ico-adjustments" viewBox="0 0 64 64">
    <rect width="64" height="64" rx="14" fill="#F1F5F9"/>
    <path d="M20 24h24M20 32h24M20 40h24" stroke="#0F172A" stroke-width="4" stroke-linecap="round"/>
    <circle cx="36" cy="24" r="4" fill="#10B981"/>
    <circle cx="28" cy="32" r="4" fill="#F59E0B"/>
    <circle cx="40" cy="40" r="4" fill="#3B82F6"/>
  </symbol>

  <symbol id="ico-free-receive" viewBox="0 0 64 64">
    <rect width="64" height="64" rx="14" fill="#ECFCCB"/>
    <path d="M20 34l12-12 12 12" stroke="#65A30D" stroke-width="4" stroke-linecap="round" stroke-linejoin="round"/>
    <rect x="20" y="34" width="24" height="12" rx="2" fill="#65A30D"/>
  </symbol>

  <symbol id="ico-free-issue" viewBox="0 0 64 64">
    <rect width="64" height="64" rx="14" fill="#FFEDD5"/>
    <path d="M20 30l12 12 12-12" stroke="#EA580C" stroke-width="4" stroke-linecap="round" stroke-linejoin="round"/>
    <rect x="20" y="18" width="24" height="12" rx="2" fill="#EA580C"/>
  </symbol>

  <symbol id="ico-dms-reports" viewBox="0 0 64 64">
    <use href="#ico-reports"/>
  </symbol>

</svg>